<svg width="1000" height="700" viewBox="0 0 1000 700" fill="none" xmlns="http://www.w3.org/2000/svg">
<path d="M500.5 238.03C461.06 238.03 429.496 229.684 395.876 214.754C377.596 206.584 354.32 201.118 334.159 201.118C267.27 201.118 213.076 255.311 213.076 322.2C213.076 389.089 267.27 443.282 334.159 443.282C354.261 443.282 379.065 438.404 395.758 429.705C426.558 413.717 461.001 406.37 500.5 406.37C540.058 406.37 569.329 414.716 602.95 429.763C621.112 437.875 646.74 443.282 666.842 443.282C733.731 443.282 787.924 389.089 787.924 322.2C787.924 255.311 733.731 201.118 666.842 201.118C646.74 201.118 619.525 205.996 602.832 214.695C572.033 230.683 539.94 238.03 500.5 238.03Z" fill="url(#paint0_linear)"/>
<path d="M788.218 322.2C788.218 255.252 733.966 201 667.018 201C646.916 201 631.869 201 602.95 214.578C574.031 228.155 402.694 358.407 349.5 376.746C296.365 395.026 240.232 372.161 224.244 325.609C216.72 303.803 219.365 280.644 229.71 260.307C218.954 278.41 212.782 299.571 212.782 322.2C212.782 389.148 267.034 443.4 333.982 443.4C354.084 443.4 372.952 443.4 395.64 429.822C418.329 416.245 597.19 285.934 650.325 267.595C703.46 249.315 759.593 272.18 775.581 318.732C785.22 346.71 778.167 376.922 759.476 400.492C777.403 379.391 788.218 352.059 788.218 322.2Z" fill="url(#paint1_linear)"/>
<path d="M258.2 505.685C262.2 505.685 265.5 507.085 268.3 509.885C271.1 512.685 272.5 516.085 272.5 519.985V569.585H221.8C217.8 569.585 214.5 568.185 211.7 565.385C208.9 562.585 207.5 559.185 207.5 555.285V531.685H260.6V519.985C260.6 519.285 260.4 518.785 259.9 518.285C259.4 517.785 258.9 517.585 258.2 517.585H207.5V505.685H258.2ZM260.6 557.685V543.585H219.4V555.285C219.4 555.985 219.6 556.485 220.1 556.985C220.6 557.485 221.1 557.685 221.8 557.685H260.6ZM375.3 505.685H388L364 569.585H354.3L332.8 522.085L312.5 569.585L312.3 569.485L312.4 569.585H302.8L277.7 505.685H290.3L307.6 548.085L326 505.685H339.6L359.1 548.085L375.3 505.685ZM442.5 505.685C446.5 505.685 449.8 507.085 452.6 509.885C455.4 512.685 456.8 516.085 456.8 519.985V543.585H403.7V555.285C403.7 555.985 403.9 556.485 404.4 556.985C404.9 557.485 405.4 557.685 406.1 557.685H456.8V569.585H406.1C402.1 569.585 398.8 568.185 396 565.385C393.2 562.585 391.8 559.185 391.8 555.285V519.985C391.8 515.985 393.2 512.685 396 509.885C398.8 507.085 402.2 505.685 406.1 505.685H442.5ZM403.7 531.685H444.9V519.985C444.9 519.285 444.7 518.785 444.2 518.285C443.7 517.785 443.2 517.585 442.5 517.585H406.1C405.4 517.585 404.9 517.785 404.4 518.285C403.9 518.785 403.7 519.285 403.7 519.985V531.685ZM532.7 520.085V522.485H520.8V520.085C520.8 519.385 520.6 518.885 520.1 518.385C519.6 517.885 519.1 517.685 518.4 517.685H482C481.3 517.685 480.8 517.885 480.3 518.385C479.8 518.885 479.6 519.385 479.6 520.085V529.385C479.6 530.085 479.8 530.585 480.3 531.085C480.8 531.585 481.3 531.785 482 531.785H518.4C522.4 531.785 525.7 533.185 528.5 535.985C531.3 538.785 532.7 542.185 532.7 546.085V555.385C532.7 559.385 531.3 562.685 528.5 565.485C525.7 568.285 522.3 569.685 518.4 569.685H482C478 569.685 474.7 568.285 471.9 565.485C469.1 562.685 467.7 559.285 467.7 555.385V552.985H479.6V555.385C479.6 556.085 479.8 556.585 480.3 557.085C480.8 557.585 481.3 557.785 482 557.785H518.4C519.1 557.785 519.6 557.585 520.1 557.085C520.6 556.585 520.8 556.085 520.8 555.385V546.085C520.8 545.385 520.6 544.885 520.1 544.385C519.6 543.885 519.1 543.685 518.4 543.685H482C478 543.685 474.7 542.285 471.9 539.485C469.1 536.685 467.7 533.285 467.7 529.385V520.085C467.7 516.085 469.1 512.785 471.9 509.985C474.7 507.185 478.1 505.785 482 505.785H518.4C522.4 505.785 525.7 507.185 528.5 509.985C531.3 512.685 532.7 516.085 532.7 520.085ZM557.9 505.685H594.3C598.3 505.685 601.6 507.085 604.4 509.885C607.2 512.685 608.6 516.085 608.6 519.985V555.285C608.6 559.285 607.2 562.585 604.4 565.385C601.6 568.185 598.2 569.585 594.3 569.585H557.9C553.9 569.585 550.6 568.185 547.8 565.385C545 562.585 543.6 559.185 543.6 555.285V519.985C543.6 515.985 545 512.685 547.8 509.885C550.6 507.085 554 505.685 557.9 505.685ZM594.3 517.585H557.9C557.2 517.585 556.7 517.785 556.2 518.285C555.7 518.785 555.5 519.285 555.5 519.985V555.285C555.5 555.985 555.7 556.485 556.2 556.985C556.7 557.485 557.2 557.685 557.9 557.685H594.3C595 557.685 595.5 557.485 596 556.985C596.5 556.485 596.7 555.985 596.7 555.285V519.985C596.7 519.285 596.5 518.785 596 518.285C595.5 517.885 595 517.585 594.3 517.585ZM701.8 505.685C705.8 505.685 709.1 507.085 711.9 509.885C714.7 512.685 716.1 516.085 716.1 519.985V569.585H704.3V519.985C704.3 519.285 704.1 518.785 703.6 518.285C703.1 517.785 702.5 517.585 701.8 517.585H676.6C675.9 517.585 675.4 517.785 674.9 518.285C674.4 518.785 674.2 519.285 674.2 519.985V569.585H662.3V519.985C662.3 519.285 662.1 518.785 661.6 518.285C661.1 517.785 660.6 517.585 659.9 517.585H634.6C633.9 517.585 633.4 517.785 632.9 518.285C632.4 518.785 632.2 519.285 632.2 519.985V569.585H620.3V505.685H701.8ZM778.3 505.685C782.3 505.685 785.6 507.085 788.4 509.885C791.2 512.685 792.6 516.085 792.6 519.985V543.585H739.5V555.285C739.5 555.985 739.7 556.485 740.2 556.985C740.7 557.485 741.2 557.685 741.9 557.685H792.6V569.585H741.9C737.9 569.585 734.6 568.185 731.8 565.385C729 562.585 727.6 559.185 727.6 555.285V519.985C727.6 515.985 729 512.685 731.8 509.885C734.6 507.085 738 505.685 741.9 505.685H778.3ZM739.5 531.685H780.7V519.985C780.7 519.285 780.5 518.785 780 518.285C779.5 517.785 779 517.585 778.3 517.585H741.9C741.2 517.585 740.7 517.785 740.2 518.285C739.7 518.785 739.5 519.285 739.5 519.985V531.685Z" fill="#494368"/>
<path opacity="0.8" d="M792.5 241.585L642.5 103.985L621.4 126.985L746.4 241.585H253.7L378.7 126.885L357.6 103.885L207.6 241.585H207.5V332.285C207.5 373.285 247 406.685 295.5 406.685H388C436.5 406.685 476 373.285 476 332.285V272.685H524V332.285C524 373.285 563.5 406.685 612 406.685H704.5C753 406.685 792.5 373.285 792.5 332.285V241.585Z" fill="#494368"/>
<defs>
<linearGradient id="paint0_linear" x1="241.066" y1="322.2" x2="787.924" y2="322.2" gradientUnits="userSpaceOnUse">
<stop stop-color="#FDBF40"/>
<stop offset="1" stop-color="#FB6758"/>
</linearGradient>
<linearGradient id="paint1_linear" x1="212.782" y1="322.2" x2="788.218" y2="322.2" gradientUnits="userSpaceOnUse">
<stop stop-color="#FB6B57"/>
<stop offset="0.53603" stop-color="#FDBF44"/>
<stop offset="1" stop-color="#FFDF9D"/>
</linearGradient>
</defs>
</svg>
